<svg xmlns="http://www.w3.org/2000/svg" xmlns:xlink="http://www.w3.org/1999/xlink" fill="none" version="1.1" width="80"
  height="120" viewBox="0 0 80 120">
  <defs>
    <clipPath id="master_svg0_200_02537">
      <rect x="12.68310546875" y="31.2197265625" width="54.63414764404297" height="54.63414764404297"
        rx="3.1219515800476074" />
    </clipPath>
  </defs>
  <g>
    <g>
      <path
        d="M0,98.8557C0,105.749,4.39863,111.973,11.1,113.589Q25.55,117.073,40,117.073Q54.45,117.073,68.9,113.589C75.6014,111.973,80,105.749,80,98.8557L80,17.8529C80,12.0224,76.5262,6.69213,70.97,4.92499Q55.485,0,40,0Q24.515,0,9.03,4.92499C3.47379,6.69213,0,12.0224,0,17.8529L0,98.8557Z"
        fill="#175CFF" fill-opacity="1" />
    </g>
    <g>
      <path
        d="M0,24.45452109375L0,92.00392109375C0,99.50492109375,5.03381,106.13572109375,12.42,107.44362109375Q26.21,109.88462109375,40,109.88462109375Q53.79,109.88462109375,67.58,107.44362109375C74.9662,106.13572109375,80,99.50492109375,80,92.00392109375L80,24.45452109375C80,17.243321093749998,75.3458,10.781711093750001,68.3,9.245921093749999Q54.15,6.16162109375,40,6.16162109375Q25.85,6.16162109375,11.7,9.245921093749999C4.6542,10.781711093750001,0,17.243321093749998,0,24.45452109375Z"
        fill="#333333" fill-opacity="1" />
    </g>
    <g>
      <rect x="35.943359375" y="2.05419921875" width="9.242619514465332" height="4.107831001281738" rx="0"
        fill="#333333" fill-opacity="1" />
    </g>
    <g>
      <rect x="35.943359375" y="109.884765625" width="9.242619514465332" height="4.107831001281738" rx="0"
        fill="#333333" fill-opacity="1" />
    </g>
    <g>
      <g>
        <ellipse cx="40.00084400177002" cy="59.99965953826904" rx="11.296534538269043" ry="11.296534538269043"
          fill="#666666" fill-opacity="1" />
      </g>
      <g>
        <ellipse cx="40.00051426887512" cy="41.078227281570435" rx="1.0269577503204346" ry="1.0269577503204346"
          fill="#666666" fill-opacity="1" />
      </g>
      <g>
        <ellipse cx="40.00051426887512" cy="41.078227281570435" rx="1.0269577503204346" ry="1.0269577503204346"
          fill="#666666" fill-opacity="1" />
      </g>
      <g>
        <ellipse cx="40.00051426887512" cy="75.99473118782043" rx="1.0269577503204346" ry="1.0269577503204346"
          fill="#666666" fill-opacity="1" />
      </g>
      <g
        transform="matrix(0.7071067690849304,0.7071067690849304,-0.7071067690849304,0.7071067690849304,46.96696825853826,-23.908798168776116)">
        <ellipse cx="53.37091565132141" cy="45.766703844070435" rx="1.0269577503204346" ry="1.0269577503204346"
          fill="#666666" fill-opacity="1" />
      </g>
      <g
        transform="matrix(0.7071067690849304,0.7071067690849304,-0.7071067690849304,0.7071067690849304,57.19436452687762,0.7809409847696998)">
        <ellipse cx="28.68146252632141" cy="70.45713353157043" rx="1.0269577503204346" ry="1.0269577503204346"
          fill="#666666" fill-opacity="1" />
      </g>
      <g transform="matrix(0,1,-1,0,115.99532508850098,-0.9757938385009766)">
        <ellipse cx="59.51251721382141" cy="58.536723375320435" rx="1.0269577503204346" ry="1.0269577503204346"
          fill="#666666" fill-opacity="1" />
      </g>
      <g transform="matrix(0,1,-1,0,81.07882118225098,33.94071006774902)">
        <ellipse cx="24.59601330757141" cy="58.536723375320435" rx="1.0269577503204346" ry="1.0269577503204346"
          fill="#666666" fill-opacity="1" />
      </g>
      <g
        transform="matrix(-0.7071067094802856,0.7071068286895752,-0.7071068286895752,-0.7071067094802856,141.95568849481174,82.96076291572854)">
        <ellipse cx="54.82306408882141" cy="71.90732884407043" rx="1.0269577503204346" ry="1.0269577503204346"
          fill="#666666" fill-opacity="1" />
      </g>
      <g
        transform="matrix(-0.7071067094802856,0.7071068286895752,-0.7071068286895752,-0.7071067094802856,82.34674231763461,58.27269380196549)">
        <ellipse cx="30.13165783882141" cy="47.217875719070435" rx="1.0269577503204346" ry="1.0269577503204346"
          fill="#666666" fill-opacity="1" />
      </g>
    </g>
    <g>
      <rect x="12.68310546875" y="31.2197265625" width="54.63414764404297" height="54.63414764404297"
        rx="3.1219515800476074" fill="#F5C15B" fill-opacity="1" />
      <g>
        <path
          d="M39.609756,85.85382656249999L39.609756,31.2197265625L40.390244,31.2197265625L40.390244,85.85382656249999L39.609756,85.85382656249999Z"
          fill-rule="evenodd" fill="#DFA22D" fill-opacity="1" />
      </g>
      <g transform="matrix(0,1,-1,0,121.17041015625,-13.46435546875)">
        <path
          d="M66.9271388125,108.48712734374999L66.9271388125,53.85302734375L67.7076268125,53.85302734375L67.7076268125,108.48712734374999L66.9271388125,108.48712734374999Z"
          fill-rule="evenodd" fill="#DFA22D" fill-opacity="1" />
      </g>
      <g>
        <rect x="12.68310546875" y="76.48779296875" width="54.63414764404297" height="9.365854263305664" rx="0"
          fill="#DFA22D" fill-opacity="1" />
      </g>
      <g transform="matrix(0,1,-1,0,148.48828125,13.853515625)">
        <path
          d="M66.9271388125,135.8049984375L66.9271388125,81.1708984375L67.7076268125,81.1708984375L67.7076268125,135.8049984375L66.9271388125,135.8049984375Z"
          fill-rule="evenodd" fill="#AF7C16" fill-opacity="1" />
      </g>
      <g>
        <path
          d="M39.6087794375,85.85355296875L39.6087794375,76.48779296875L40.3892674375,76.48779296875L40.3892674375,85.85355296875L39.6087794375,85.85355296875Z"
          fill-rule="evenodd" fill="#AF7C16" fill-opacity="1" />
      </g>
    </g>
  </g>
</svg>