<svg width="80" height="120" viewBox="0 0 80 120" fill="none" xmlns="http://www.w3.org/2000/svg">
<path d="M0 98.8557C0 105.749 4.39863 111.973 11.1 113.589C20.7333 115.912 30.3667 117.073 40 117.073C49.6333 117.073 59.2667 115.912 68.9 113.589C75.6014 111.973 80 105.749 80 98.8557V17.8529C80 12.0224 76.5262 6.69213 70.97 4.92499C60.6467 1.64166 50.3233 0 40 0C29.6767 0 19.3533 1.64166 9.03 4.92499C3.47379 6.69213 0 12.0224 0 17.8529V98.8557Z" fill="#175CFF"/>
<path d="M0 24.4545V92.0039C0 99.5049 5.03381 106.136 12.42 107.444C21.6133 109.071 30.8067 109.885 40 109.885C49.1933 109.885 58.3867 109.071 67.58 107.444C74.9662 106.136 80 99.5049 80 92.0039V24.4545C80 17.2433 75.3458 10.7817 68.3 9.24592C58.8667 7.18972 49.4333 6.16162 40 6.16162C30.5667 6.16162 21.1333 7.18972 11.7 9.24592C4.6542 10.7817 0 17.2433 0 24.4545Z" fill="#333333"/>
<path d="M45.186 2.0542H35.9434V6.16203H45.186V2.0542Z" fill="#333333"/>
<path d="M45.186 109.885H35.9434V113.993H45.186V109.885Z" fill="#333333"/>
<path d="M40.0009 71.2962C46.2398 71.2962 51.2974 66.2386 51.2974 59.9997C51.2974 53.7608 46.2398 48.7031 40.0009 48.7031C33.762 48.7031 28.7043 53.7608 28.7043 59.9997C28.7043 66.2386 33.762 71.2962 40.0009 71.2962Z" fill="#666666"/>
<path d="M40.0005 42.1052C40.5676 42.1052 41.0274 41.6454 41.0274 41.0782C41.0274 40.5111 40.5676 40.0513 40.0005 40.0513C39.4333 40.0513 38.9735 40.5111 38.9735 41.0782C38.9735 41.6454 39.4333 42.1052 40.0005 42.1052Z" fill="#666666"/>
<path d="M40.0005 42.1052C40.5676 42.1052 41.0274 41.6454 41.0274 41.0782C41.0274 40.5111 40.5676 40.0513 40.0005 40.0513C39.4333 40.0513 38.9735 40.5111 38.9735 41.0782C38.9735 41.6454 39.4333 42.1052 40.0005 42.1052Z" fill="#666666"/>
<path d="M40.0005 77.0217C40.5676 77.0217 41.0274 76.5619 41.0274 75.9947C41.0274 75.4276 40.5676 74.9678 40.0005 74.9678C39.4333 74.9678 38.9735 75.4276 38.9735 75.9947C38.9735 76.5619 39.4333 77.0217 40.0005 77.0217Z" fill="#666666"/>
<path d="M51.6178 46.9183C52.0189 47.3193 52.6691 47.3193 53.0702 46.9183C53.4712 46.5172 53.4712 45.867 53.0702 45.4659C52.6691 45.0649 52.0189 45.0649 51.6178 45.4659C51.2168 45.867 51.2168 46.5172 51.6178 46.9183Z" fill="#666666"/>
<path d="M26.9284 71.6087C27.3294 72.0097 27.9797 72.0097 28.3807 71.6087C28.7818 71.2076 28.7818 70.5574 28.3807 70.1563C27.9797 69.7553 27.3294 69.7553 26.9284 70.1563C26.5273 70.5574 26.5273 71.2076 26.9284 71.6087Z" fill="#666666"/>
<path d="M56.4317 58.5367C56.4317 59.1039 56.8915 59.5637 57.4586 59.5637C58.0258 59.5637 58.4856 59.1039 58.4856 58.5367C58.4856 57.9696 58.0258 57.5098 57.4586 57.5098C56.8915 57.5098 56.4317 57.9696 56.4317 58.5367Z" fill="#666666"/>
<path d="M21.5152 58.5367C21.5152 59.1039 21.975 59.5637 22.5421 59.5637C23.1093 59.5637 23.5691 59.1039 23.5691 58.5367C23.5691 57.9696 23.1093 57.5098 22.5421 57.5098C21.975 57.5098 21.5152 57.9696 21.5152 58.5367Z" fill="#666666"/>
<path d="M51.6176 70.1542C51.2166 70.5553 51.2166 71.2055 51.6176 71.6065C52.0187 72.0076 52.6689 72.0076 53.07 71.6065C53.471 71.2055 53.471 70.5553 53.07 70.1542C52.6689 69.7532 52.0187 69.7532 51.6176 70.1542Z" fill="#666666"/>
<path d="M26.9262 45.4647C26.5252 45.8658 26.5252 46.516 26.9262 46.9171C27.3273 47.3181 27.9775 47.3181 28.3786 46.9171C28.7796 46.516 28.7796 45.8658 28.3786 45.4647C27.9775 45.0637 27.3273 45.0637 26.9262 45.4647Z" fill="#666666"/>
<mask id="mask0_272_2" style="mask-type:luminance" maskUnits="userSpaceOnUse" x="12" y="31" width="56" height="55">
<path d="M64.1953 31.2197H15.8051C14.0809 31.2197 12.6831 32.6175 12.6831 34.3417V82.7319C12.6831 84.4561 14.0809 85.8539 15.8051 85.8539H64.1953C65.9195 85.8539 67.3173 84.4561 67.3173 82.7319V34.3417C67.3173 32.6175 65.9195 31.2197 64.1953 31.2197Z" fill="white"/>
</mask>
<g mask="url(#mask0_272_2)">
<path d="M64.1953 31.2197H15.8051C14.0809 31.2197 12.6831 32.6175 12.6831 34.3417V82.7319C12.6831 84.4561 14.0809 85.8539 15.8051 85.8539H64.1953C65.9195 85.8539 67.3173 84.4561 67.3173 82.7319V34.3417C67.3173 32.6175 65.9195 31.2197 64.1953 31.2197Z" fill="#F5C15B"/>
<path fill-rule="evenodd" clip-rule="evenodd" d="M39.6097 85.8538V31.2197H40.3902V85.8538H39.6097Z" fill="#DFA22D"/>
<path fill-rule="evenodd" clip-rule="evenodd" d="M12.6833 53.4628H67.3174V54.2433H12.6833V53.4628Z" fill="#DFA22D"/>
<path d="M67.3173 76.4878H12.6831V85.8536H67.3173V76.4878Z" fill="#DFA22D"/>
<path fill-rule="evenodd" clip-rule="evenodd" d="M12.6833 80.7806H67.3174V81.5611H12.6833V80.7806Z" fill="#AF7C16"/>
<path fill-rule="evenodd" clip-rule="evenodd" d="M39.6088 85.8536V76.4878H40.3893V85.8536H39.6088Z" fill="#AF7C16"/>
</g>
</svg>
